<svg width="28" height="27" viewBox="0 0 28 27" fill="none" xmlns="http://www.w3.org/2000/svg">
<g clip-path="url(#clip0_158_18)">
<path fill-rule="evenodd" clip-rule="evenodd" d="M12.4939 3.99788C11.0458 4.16963 9.99322 4.543 8.87351 5.15533C8.04492 5.61084 7.17155 6.30531 6.53704 6.98485C4.71564 8.91144 3.72283 11.7864 4.03635 14.5792C4.58874 19.4704 9.03027 23.6521 14.6139 23.0099C19.4735 22.4573 23.6836 18.0516 23.0416 12.4361C22.8923 11.0919 22.4594 9.84487 21.8846 8.84424C20.0632 5.66312 16.51 3.51997 12.5014 3.99788H12.4939ZM12.7701 6.79816C9.33633 7.20887 6.34296 10.3078 6.83563 14.2955C7.25366 17.7305 10.3291 20.6577 14.3153 20.2022C17.7192 19.8139 20.7201 16.6776 20.2349 12.7124C20.0035 10.8231 19.1525 9.4715 17.876 8.33645C16.7563 7.33582 14.8378 6.55174 12.7701 6.79816Z" fill="#FBFBFB"/>
<path fill-rule="evenodd" clip-rule="evenodd" d="M12.9939 7.90335C10.0677 8.21698 7.61181 10.7559 7.94026 14.0789C8.22392 16.9613 10.8366 19.433 14.0912 19.1045C16.9875 18.8133 19.4658 16.2295 19.1374 12.9588C18.8463 10.0689 16.256 7.56732 13.0014 7.91082L12.9939 7.90335ZM14.4122 13.2052C14.0912 13.1081 13.9568 13.0335 13.5761 13.0111C12.3594 12.9364 12.4042 11.7565 12.867 11.3309C13.2776 10.9575 13.927 11.0173 14.2554 11.3981C14.666 11.8686 14.2554 12.6004 15.1587 12.5107C15.5319 12.2419 15.4349 12.2419 15.4722 11.7341C15.405 11.6595 15.3826 11.5176 15.3453 11.3832C15.1661 10.8231 14.6137 10.3228 14.0166 10.1809C14.0091 9.71047 14.0837 9.14294 13.5314 9.14294C12.9864 9.14294 13.0461 9.71047 13.0461 10.1809C11.9712 10.4124 11.1128 11.8312 11.8667 13.0409C12.6207 14.2581 13.5612 13.7951 14.1136 14.1835C14.3077 14.3179 14.5092 14.6091 14.5018 14.975C14.4943 15.5799 13.9195 16.11 13.2402 15.8935C12.3295 15.6097 12.7699 14.7734 12.2922 14.5344C11.9862 14.3776 11.6652 14.5792 11.6054 14.8555C11.4785 15.4156 11.8742 16.0652 12.2773 16.4386C12.546 16.685 12.7326 16.6776 13.0312 16.8568C13.076 17.3123 12.9566 17.8724 13.5314 17.8724C14.0837 17.8724 14.0091 17.2899 14.0166 16.8344C15.293 16.4984 15.8604 15.0646 15.1811 13.952C14.8526 13.4068 14.5316 13.377 14.4047 13.2127L14.4122 13.2052Z" fill="#FBFBFB"/>
<path fill-rule="evenodd" clip-rule="evenodd" d="M23.0642 5.67864C22.6835 5.6637 21.7579 5.52182 21.4966 5.67117C21.0636 5.91013 21.1532 6.55979 21.6086 6.69421C21.8848 6.77635 22.7805 6.79875 23.1314 6.82862C24.9677 6.9705 24.8333 7.03024 24.9453 5.41728C24.9752 4.96923 25.0797 4.22996 25.0573 3.81925C25.0349 3.35627 24.5198 3.06504 24.1466 3.37867C23.8331 3.64003 23.9301 4.32703 23.8629 4.79001C23.6763 4.67054 23.3703 4.25236 23.1836 4.06567C16.8386 -2.43845 5.70866 -0.9823 1.43135 7.55296C0.027981 10.3532 -0.412439 13.9749 0.580372 17.2755C0.692344 17.6489 0.759526 18.0521 1.08798 18.1716C1.51347 18.3284 1.87924 17.9924 1.84938 17.5966C1.84192 17.507 1.40896 16.1032 1.29699 15.2519C0.625161 10.3458 2.80487 5.93253 6.54471 3.31147C10.3443 0.653064 15.7264 0.354368 19.9589 2.93809C20.8098 3.46081 21.7355 4.17769 22.3924 4.86469C22.5417 5.0215 22.9896 5.48448 23.0791 5.69357L23.0642 5.67864Z" fill="#FBFBFB"/>
<path fill-rule="evenodd" clip-rule="evenodd" d="M3.15541 22.5169C3.09569 22.2929 3.17033 22.39 3.06583 22.2779C3.06583 22.2779 2.58808 21.9942 3.10315 21.6955C2.99118 21.4939 2.94639 21.6133 2.96879 21.3445C3.29724 21.3669 3.0285 21.3893 3.36442 21.6507C3.28231 21.4565 3.47639 21.2997 3.7078 21.2922L3.74512 21.5237C3.74512 21.5835 3.73019 21.6581 3.72273 21.7254C3.84216 21.6581 3.76751 21.6133 3.9616 21.576C3.9392 21.8672 3.84216 21.9419 3.50625 21.8896C3.50625 22.0838 3.52118 21.9867 3.46146 22.1286C3.39428 22.2854 3.40921 22.1211 3.34949 22.3526C4.23033 23.5474 6.08905 24.8542 7.4775 25.5711C12.031 27.9158 17.8236 27.3259 21.7874 24.1821C22.2726 23.8013 23.4968 22.7708 23.676 22.3526C23.6611 22.2481 23.7208 22.3676 23.6014 22.2929C23.1311 22.0166 23.4595 21.8075 23.5864 21.6432C23.4745 21.5461 23.4595 21.5088 23.4446 21.3296C23.7133 21.3819 23.7208 21.4789 23.8178 21.6357C23.9223 21.3968 23.8701 21.2922 24.1985 21.2773C24.2732 21.4491 24.1985 21.5387 24.2508 21.6581C24.5344 21.4416 25.4526 19.866 25.7139 19.3208C26.117 18.4845 26.4678 17.5063 26.6992 16.4832C27.2143 14.2206 27.1173 11.7713 26.4678 9.62067C26.3409 9.2025 26.1095 8.50056 25.4974 8.87393C25.0122 9.16516 25.3481 9.77002 25.4825 10.2629C25.7811 11.383 25.9304 12.4956 25.908 13.7278C25.8035 19.6643 21.2947 25.1006 14.89 25.7876C12.5461 26.0415 10.1947 25.586 8.35834 24.7198C7.44764 24.2941 6.6713 23.8013 5.97708 23.2711C5.61131 22.9873 4.15568 21.7403 4.00639 21.3146C4.35723 21.3221 5.29779 21.4565 5.54413 21.3445C5.99948 21.1354 5.92483 20.4708 5.49934 20.314C5.23807 20.2169 2.72991 20.0452 2.53583 20.1273C2.13273 20.2991 2.17752 20.8517 2.1402 21.337C2.10288 21.8523 2.06555 22.3526 2.02076 22.8753C1.90879 24.2195 3.43907 23.9656 3.14794 22.4945L3.15541 22.5169Z" fill="#FBFBFB"/>
<path fill-rule="evenodd" clip-rule="evenodd" d="M3.15555 22.5173C3.21527 22.4202 3.2078 22.3381 3.21527 22.2186C3.22273 22.2261 3.23766 22.2261 3.24512 22.2485L3.30484 22.3007C3.31231 22.3082 3.32724 22.3231 3.3347 22.3231C3.34217 22.3306 3.3571 22.3381 3.36456 22.3455C3.41681 22.114 3.40188 22.2783 3.47653 22.1215C3.53625 21.9796 3.52132 22.0692 3.52132 21.8826C3.84977 21.9348 3.95428 21.8601 3.97667 21.5689C3.78259 21.6063 3.85723 21.6511 3.7378 21.7183C3.74526 21.6585 3.76019 21.5764 3.76019 21.5166L3.72287 21.2852C3.49146 21.2926 3.30484 21.4494 3.37949 21.6436C3.04358 21.3822 3.31231 21.3598 2.98386 21.3374C2.96146 21.6063 3.00625 21.4868 3.11822 21.6884C2.60316 21.9796 3.0809 22.2634 3.0809 22.2709C3.19287 22.3829 3.11076 22.2858 3.17048 22.5098L3.15555 22.5173Z" fill="#2C2C2C"/>
<path fill-rule="evenodd" clip-rule="evenodd" d="M23.6761 22.3531C23.8328 22.2859 23.8552 22.1963 23.9747 22.0619C24.0418 21.9872 24.0418 21.9947 24.109 21.9051C24.1986 21.7781 24.1911 21.7856 24.2509 21.6736C24.1986 21.5466 24.2732 21.457 24.1986 21.2927C23.8702 21.3077 23.9149 21.4047 23.8179 21.6512C23.7209 21.4943 23.7134 21.3973 23.4447 21.345C23.4596 21.5242 23.4745 21.5616 23.5865 21.6586C23.4596 21.8229 23.1311 22.032 23.6014 22.3083C23.7283 22.383 23.6611 22.256 23.6761 22.368V22.3531Z" fill="#2C2C2C"/>
</g>
<defs>
<clipPath id="clip0_158_18">
<rect width="27" height="27" fill="white" transform="translate(0.0350952)"/>
</clipPath>
</defs>
</svg>
