<svg width="27" height="26" viewBox="0 0 27 26" fill="none" xmlns="http://www.w3.org/2000/svg">
<path fill-rule="evenodd" clip-rule="evenodd" d="M14.4633 14.1294C14.4633 15.0588 14.709 15.6066 15.2495 16.2378C15.6592 16.7029 15.7901 17.2999 15.7901 17.9476C15.7901 18.5945 15.5775 19.2086 15.1517 19.7072C14.5942 20.3049 13.808 20.6865 13.0056 20.7529C11.8429 20.852 10.6794 20.9355 9.50045 20.9355C8.32078 20.9355 7.15802 20.8855 5.99526 20.7529C5.19214 20.6865 4.40594 20.3049 3.8492 19.7072C3.42337 19.2086 3.21008 18.5945 3.21008 17.9476C3.21008 17.2999 3.34173 16.7029 3.75064 16.2378C4.30812 15.6066 4.53758 15.0588 4.53758 14.1294V13.8141C4.53758 12.5695 4.84795 11.7556 5.48706 10.9589C6.43727 9.79695 7.9604 9.1001 9.46736 9.1001H9.53355C11.0729 9.1001 12.6453 9.83049 13.5793 11.0423C14.1853 11.8227 14.4633 12.6023 14.4633 13.8141V14.1294ZM7.3346 22.4651C7.3346 22.0925 7.67659 21.9218 7.99284 21.8488C8.36277 21.7705 10.617 21.7705 10.9869 21.8488C11.3031 21.9218 11.6451 22.0925 11.6451 22.4651C11.6267 22.8199 11.4186 23.1344 11.131 23.3341C10.7582 23.6248 10.3206 23.8089 9.86311 23.8752C9.61011 23.908 9.36153 23.9088 9.11735 23.8752C8.65916 23.8089 8.22157 23.6248 7.84942 23.3334C7.56113 23.1344 7.35299 22.8199 7.3346 22.4651Z" fill="#272835"/>
<circle cx="22.25" cy="4.25" r="4.25" fill="#A14807"/>
</svg>
