<svg width="23" height="22" viewBox="0 0 23 22" fill="none" xmlns="http://www.w3.org/2000/svg">
<g clip-path="url(#clip0_158_43)">
<path fill-rule="evenodd" clip-rule="evenodd" d="M4.25951 20.3447V12.9868C4.25951 12.435 4.29683 12.1407 4.89398 12.1407C5.86434 12.1039 6.90935 12.1407 7.87972 12.1407C8.85008 12.1407 9.89509 12.1039 10.8655 12.1407C11.4253 12.1407 11.4999 12.435 11.4999 12.95V20.3447H13.8139C13.8139 19.241 13.8139 18.1741 13.8139 17.0704C13.8139 14.8263 13.2914 13.4651 16.1651 12.7661C17.2848 12.5086 18.0686 12.5453 19.2255 12.4718C19.3375 11.9935 19.2255 10.2276 19.2255 9.6022C19.2255 8.64568 19.2255 8.97678 17.8819 8.05705C15.6426 6.54869 12.9555 5.00354 10.7162 3.49518C10.3056 3.20086 10.0071 3.53197 9.70848 3.71591L3.4011 7.68916C2.80396 8.05705 2.20681 8.42494 1.60966 8.82963C1.23644 9.08715 1.34841 9.23431 1.34841 10.0069V17.2912C1.34841 20.6758 1.01251 20.2711 2.72931 20.2711C3.25182 20.2711 3.77432 20.2711 4.25951 20.2711V20.3447ZM10.0817 5.51859C8.96205 5.66575 7.95436 6.73264 8.17829 8.05705C8.3649 9.16073 9.40991 10.1173 10.7535 9.89652C11.8358 9.71257 12.8435 8.68247 12.6196 7.35805C12.433 6.25437 11.4253 5.37143 10.0817 5.51859Z" fill="white"/>
<path fill-rule="evenodd" clip-rule="evenodd" d="M10.1939 0.0368913L7.50673 1.7292C7.05887 2.02351 6.64833 2.28104 6.16315 2.57535L0.788817 5.95997C-0.181548 6.5486 0.00506045 6.32786 0.00506045 7.39475C0.00506045 7.72585 -0.0695831 8.13054 0.266313 8.2409C0.564887 8.31448 0.826139 8.05696 1.01275 7.94659L5.0435 5.40813C5.49136 5.11381 5.93922 4.85629 6.38708 4.56198L9.74604 2.4282C10.6044 1.91315 10.3432 2.0603 11.8734 2.98004C14.1127 4.34124 16.352 5.8496 18.5913 7.2108C19.0392 7.46833 19.5243 7.76264 19.9349 8.05696C20.9052 8.75595 20.7186 7.32117 20.7186 6.95328C20.7186 6.47502 20.756 6.40144 20.3827 6.1807C20.1588 6.03355 19.9349 5.88639 19.7109 5.73923C19.2258 5.44492 18.8152 5.18739 18.3674 4.89308L15.6802 3.20077C14.7845 2.61214 13.8888 2.09709 12.993 1.50846L10.9777 0.220838C10.7537 0.0736806 10.4552 -0.183845 10.1566 -0.0734766L10.1939 0.0368913Z" fill="white"/>
<path fill-rule="evenodd" clip-rule="evenodd" d="M5.34195 20.3445C5.97642 20.3445 10.1565 20.3813 10.4177 20.3077V13.2074H5.34195C5.2673 13.6121 5.34195 19.388 5.30463 20.3445H5.34195Z" fill="white"/>
<path fill-rule="evenodd" clip-rule="evenodd" d="M17.8825 13.5755C17.1734 13.6491 16.2776 13.7595 15.6805 14.0538C14.9341 14.3849 14.5608 14.9367 15.4566 15.415C16.6135 16.0404 18.6289 16.1508 20.0845 16.0036C20.8309 15.93 21.652 15.7829 22.2491 15.5254C23.0702 15.1943 23.3315 14.6424 22.5104 14.1642C21.428 13.5387 19.3007 13.4284 17.8825 13.5755Z" fill="white"/>
<path fill-rule="evenodd" clip-rule="evenodd" d="M22.9952 18.3582C21.465 18.9468 20.7559 19.1307 18.9644 19.1307C17.8821 19.1307 16.8371 19.0204 15.7921 18.726C15.4935 18.6157 15.1576 18.4685 14.8964 18.3949C14.8964 18.9836 14.8964 19.0939 15.3442 19.3515C16.9117 20.308 21.0918 20.2712 22.51 19.3883C22.9205 19.1307 22.9952 19.0204 22.9579 18.3949L22.9952 18.3582Z" fill="white"/>
<path fill-rule="evenodd" clip-rule="evenodd" d="M19.0391 17.144C18.218 17.144 17.5089 17.1072 16.6878 16.96C15.5682 16.7393 15.4562 16.5554 14.8964 16.4082C14.8964 16.9968 14.8964 17.1072 15.3069 17.3647C16.6505 18.2109 19.7482 18.2109 21.3157 17.843C22.5846 17.5487 22.9952 17.3279 22.9579 16.4082C21.7636 16.96 20.4946 17.1808 19.0018 17.1808L19.0391 17.144Z" fill="white"/>
<path fill-rule="evenodd" clip-rule="evenodd" d="M14.8964 20.3444C14.8964 20.8962 14.9337 21.0802 15.3442 21.3009C16.7625 22.1471 19.8602 22.1103 21.5023 21.7056C22.2861 21.5217 23.1445 21.2273 22.9579 20.3076C21.577 21.117 18.5166 21.2273 16.7625 20.8962C15.6055 20.6755 15.3069 20.418 14.8964 20.3076V20.3444Z" fill="white"/>
<path fill-rule="evenodd" clip-rule="evenodd" d="M10.1192 6.62216C8.58898 7.02685 9.26077 9.27099 10.7536 8.82952C12.2092 8.38805 11.612 6.21748 10.1192 6.62216Z" fill="white"/>
</g>
<defs>
<clipPath id="clip0_158_43">
<rect width="23" height="22" fill="white"/>
</clipPath>
</defs>
</svg>
