<svg width="9" height="13" viewBox="0 0 9 13" fill="none" xmlns="http://www.w3.org/2000/svg">
<path d="M8.35714 0H0.642857C0.472361 0 0.308848 0.068481 0.188289 0.190378C0.0677295 0.312275 1.39199e-09 0.477603 1.39199e-09 0.649991V12.3498C-8.08415e-06 12.4741 0.0352085 12.5957 0.101478 12.7004C0.167747 12.805 0.262292 12.8883 0.373912 12.9402C0.485532 12.9922 0.609549 13.0108 0.731273 12.9937C0.852996 12.9766 0.967325 12.9246 1.06071 12.8438L4.5 9.92536L7.90071 12.8113C7.96078 12.8716 8.03202 12.9192 8.11034 12.9516C8.18867 12.9839 8.27254 13.0003 8.35714 12.9998C8.44147 13.002 8.52513 12.9842 8.60143 12.9478C8.71883 12.8991 8.81932 12.8162 8.89025 12.7098C8.96118 12.6034 8.99937 12.4782 9 12.3498V0.649991C9 0.477603 8.93227 0.312275 8.81171 0.190378C8.69115 0.068481 8.52764 0 8.35714 0ZM7.71429 10.9588L4.91143 8.57988C4.79592 8.4826 4.65033 8.42933 4.5 8.42933C4.34967 8.42933 4.20408 8.4826 4.08857 8.57988L1.28571 10.9588V1.29998H7.71429V10.9588Z" fill="white"/>
</svg>
