<svg width="18" height="16" viewBox="0 0 18 16" fill="none" xmlns="http://www.w3.org/2000/svg">
<path d="M14.8333 3H12.3333V2.16667C12.3333 1.72464 12.1577 1.30072 11.8451 0.988155C11.5326 0.675595 11.1087 0.5 10.6666 0.5H7.33329C6.89127 0.5 6.46734 0.675595 6.15478 0.988155C5.84222 1.30072 5.66663 1.72464 5.66663 2.16667V3H3.16663C2.50358 3 1.8677 3.26339 1.39886 3.73223C0.930018 4.20107 0.666626 4.83696 0.666626 5.5V13C0.666626 13.663 0.930018 14.2989 1.39886 14.7678C1.8677 15.2366 2.50358 15.5 3.16663 15.5H14.8333C15.4963 15.5 16.1322 15.2366 16.6011 14.7678C17.0699 14.2989 17.3333 13.663 17.3333 13V5.5C17.3333 4.83696 17.0699 4.20107 16.6011 3.73223C16.1322 3.26339 15.4963 3 14.8333 3ZM7.33329 2.16667H10.6666V3H7.33329V2.16667ZM15.6666 13C15.6666 13.221 15.5788 13.433 15.4225 13.5893C15.2663 13.7455 15.0543 13.8333 14.8333 13.8333H3.16663C2.94561 13.8333 2.73365 13.7455 2.57737 13.5893C2.42109 13.433 2.33329 13.221 2.33329 13V8.83333H5.66663V9.66667C5.66663 9.88768 5.75442 10.0996 5.9107 10.2559C6.06698 10.4122 6.27895 10.5 6.49996 10.5C6.72097 10.5 6.93293 10.4122 7.08922 10.2559C7.2455 10.0996 7.33329 9.88768 7.33329 9.66667V8.83333H10.6666V9.66667C10.6666 9.88768 10.7544 10.0996 10.9107 10.2559C11.067 10.4122 11.2789 10.5 11.5 10.5C11.721 10.5 11.9329 10.4122 12.0892 10.2559C12.2455 10.0996 12.3333 9.88768 12.3333 9.66667V8.83333H15.6666V13ZM15.6666 7.16667H2.33329V5.5C2.33329 5.27899 2.42109 5.06702 2.57737 4.91074C2.73365 4.75446 2.94561 4.66667 3.16663 4.66667H14.8333C15.0543 4.66667 15.2663 4.75446 15.4225 4.91074C15.5788 5.06702 15.6666 5.27899 15.6666 5.5V7.16667Z" fill="white"/>
</svg>
