<svg width="11" height="11" viewBox="0 0 11 11" fill="none" xmlns="http://www.w3.org/2000/svg">
<path d="M9.63659 6.06752C9.51515 6.06752 9.3882 6.02877 9.26676 6.00109C9.02084 5.94674 8.77918 5.87458 8.54366 5.78519C8.28759 5.69176 8.00612 5.69661 7.7534 5.79881C7.50068 5.90101 7.29458 6.09333 7.17475 6.33878L7.05331 6.58789C6.51569 6.28794 6.02165 5.91541 5.58504 5.48071C5.15161 5.04283 4.78016 4.54736 4.48108 4.00816L4.71291 3.85316C4.95764 3.73298 5.14941 3.52628 5.25131 3.27283C5.35321 3.01937 5.35805 2.73707 5.26489 2.48026C5.17725 2.24355 5.10534 2.00129 5.04962 1.75505C5.02202 1.63326 4.99994 1.50594 4.98338 1.37861C4.91635 0.988676 4.7127 0.635553 4.40911 0.382838C4.10552 0.130123 3.72194 -0.00557677 3.32744 0.000175656H1.67149C1.43361 -0.00206447 1.19803 0.0471275 0.980803 0.144403C0.763576 0.241678 0.569798 0.384752 0.41266 0.563886C0.255522 0.74302 0.138714 0.954007 0.0701874 1.18248C0.00166074 1.41096 -0.0169753 1.65157 0.0155478 1.88792C0.309609 4.20711 1.36571 6.36196 3.01703 8.01207C4.66835 9.66219 6.82077 10.7135 9.13428 11H9.34404C9.75108 11.0006 10.1441 10.8508 10.448 10.5793C10.6226 10.4226 10.7621 10.2306 10.8573 10.0159C10.9524 9.80118 11.0011 9.56866 11 9.33369V7.67293C10.9932 7.28839 10.8536 6.91814 10.605 6.62535C10.3563 6.33256 10.014 6.1354 9.63659 6.06752ZM9.91258 9.38905C9.91248 9.46765 9.89569 9.54533 9.86333 9.61692C9.83097 9.68851 9.78378 9.75237 9.72491 9.80424C9.66323 9.85765 9.59111 9.89755 9.51316 9.92138C9.43522 9.94521 9.35318 9.95246 9.27228 9.94264C7.20505 9.67681 5.28489 8.72834 3.81468 7.24682C2.34447 5.76531 1.40787 3.83508 1.15263 1.76059C1.14385 1.6795 1.15154 1.59746 1.17526 1.51944C1.19898 1.44142 1.23823 1.36903 1.29063 1.30665C1.34235 1.2476 1.40602 1.20027 1.4774 1.16782C1.54878 1.13536 1.62624 1.11853 1.70461 1.11843H3.36056C3.48892 1.11556 3.61426 1.15766 3.71501 1.23749C3.81576 1.31731 3.88561 1.42986 3.91254 1.55576C3.93462 1.70708 3.96222 1.85655 3.99534 2.00417C4.0591 2.29599 4.14396 2.58277 4.24925 2.86223L3.47647 3.22207C3.4104 3.25247 3.35096 3.29566 3.30158 3.34917C3.2522 3.40267 3.21384 3.46543 3.18871 3.53384C3.16358 3.60226 3.15217 3.67498 3.15514 3.74782C3.1581 3.82067 3.17539 3.89221 3.206 3.95834C4.00041 5.66492 5.36825 7.03674 7.06987 7.83347C7.20426 7.88884 7.35499 7.88884 7.48938 7.83347C7.55822 7.80877 7.62148 7.77061 7.67549 7.72119C7.7295 7.67177 7.77319 7.61209 7.80401 7.5456L8.14624 6.77058C8.43159 6.87292 8.72283 6.95796 9.01837 7.02523C9.16556 7.05844 9.3146 7.08612 9.46547 7.10826C9.59101 7.13527 9.70323 7.20533 9.78282 7.30637C9.86241 7.40741 9.9044 7.53312 9.90154 7.66185L9.91258 9.38905Z" fill="white"/>
</svg>
