<svg width="14" height="14" viewBox="0 0 14 14" fill="none" xmlns="http://www.w3.org/2000/svg">
<path d="M8.05752 7.00002L12.7825 2.28252C12.9237 2.14129 13.0031 1.94974 13.0031 1.75002C13.0031 1.55029 12.9237 1.35874 12.7825 1.21752C12.6413 1.07629 12.4497 0.996948 12.25 0.996948C12.0503 0.996948 11.8587 1.07629 11.7175 1.21752L7.00002 5.94252L2.28252 1.21752C2.14129 1.07629 1.94974 0.996948 1.75002 0.996948C1.55029 0.996948 1.35874 1.07629 1.21752 1.21752C1.07629 1.35874 0.996947 1.55029 0.996947 1.75002C0.996947 1.94974 1.07629 2.14129 1.21752 2.28252L5.94252 7.00002L1.21752 11.7175C1.14722 11.7872 1.09142 11.8702 1.05335 11.9616C1.01527 12.053 0.995667 12.151 0.995667 12.25C0.995667 12.349 1.01527 12.4471 1.05335 12.5384C1.09142 12.6298 1.14722 12.7128 1.21752 12.7825C1.28724 12.8528 1.37019 12.9086 1.46158 12.9467C1.55298 12.9848 1.65101 13.0044 1.75002 13.0044C1.84902 13.0044 1.94705 12.9848 2.03845 12.9467C2.12984 12.9086 2.21279 12.8528 2.28252 12.7825L7.00002 8.05752L11.7175 12.7825C11.7872 12.8528 11.8702 12.9086 11.9616 12.9467C12.053 12.9848 12.151 13.0044 12.25 13.0044C12.349 13.0044 12.4471 12.9848 12.5384 12.9467C12.6298 12.9086 12.7128 12.8528 12.7825 12.7825C12.8528 12.7128 12.9086 12.6298 12.9467 12.5384C12.9848 12.4471 13.0044 12.349 13.0044 12.25C13.0044 12.151 12.9848 12.053 12.9467 11.9616C12.9086 11.8702 12.8528 11.7872 12.7825 11.7175L8.05752 7.00002Z" fill="white"/>
</svg>
