<svg width="12" height="12" viewBox="0 0 12 12" fill="none" xmlns="http://www.w3.org/2000/svg">
<path d="M7.8 5.4H6.6V3C6.6 2.84087 6.53679 2.68826 6.42427 2.57574C6.31174 2.46321 6.15913 2.4 6 2.4C5.84087 2.4 5.68826 2.46321 5.57574 2.57574C5.46322 2.68826 5.4 2.84087 5.4 3V6C5.4 6.15913 5.46322 6.31174 5.57574 6.42426C5.68826 6.53678 5.84087 6.6 6 6.6H7.8C7.95913 6.6 8.11174 6.53678 8.22427 6.42426C8.33679 6.31174 8.4 6.15913 8.4 6C8.4 5.84087 8.33679 5.68826 8.22427 5.57574C8.11174 5.46321 7.95913 5.4 7.8 5.4ZM6 0C4.81331 0 3.65328 0.351894 2.66658 1.01118C1.67989 1.67047 0.910851 2.60754 0.456725 3.7039C0.0025997 4.80026 -0.11622 6.00665 0.115291 7.17054C0.346802 8.33443 0.918247 9.40352 1.75736 10.2426C2.59648 11.0818 3.66557 11.6532 4.82946 11.8847C5.99335 12.1162 7.19975 11.9974 8.2961 11.5433C9.39246 11.0892 10.3295 10.3201 10.9888 9.33342C11.6481 8.34673 12 7.18669 12 6C12 5.21207 11.8448 4.43185 11.5433 3.7039C11.2417 2.97595 10.7998 2.31451 10.2426 1.75736C9.68549 1.20021 9.02406 0.758251 8.2961 0.456723C7.56815 0.155195 6.78793 0 6 0ZM6 10.8C5.05065 10.8 4.12262 10.5185 3.33326 9.99105C2.54391 9.46362 1.92868 8.71396 1.56538 7.83688C1.20208 6.95979 1.10702 5.99467 1.29223 5.06357C1.47744 4.13246 1.9346 3.27718 2.60589 2.60589C3.27718 1.9346 4.13246 1.47744 5.06357 1.29223C5.99468 1.10702 6.9598 1.20208 7.83688 1.56538C8.71397 1.92868 9.46362 2.54391 9.99105 3.33326C10.5185 4.12262 10.8 5.05065 10.8 6C10.8 7.27304 10.2943 8.49394 9.39411 9.39411C8.49394 10.2943 7.27304 10.8 6 10.8Z" fill="white"/>
</svg>
