<svg width="9" height="9" viewBox="0 0 9 9" fill="none" xmlns="http://www.w3.org/2000/svg">
<path fill-rule="evenodd" clip-rule="evenodd" d="M5.19281 1.96333C5.13125 2.03695 4.92198 2.25781 4.84811 2.29463C4.8358 2.31917 4.84811 2.3069 4.82349 2.33144C4.81118 2.34371 4.79887 2.35598 4.78656 2.35598C4.76194 2.38052 4.73732 2.40506 4.7127 2.41733L4.66345 2.47868C4.62652 2.50322 4.65114 2.50322 4.6019 2.52776C4.58959 2.57684 4.50342 2.63819 4.46649 2.675C4.39262 2.77316 4.31876 2.83452 4.20797 2.93268C4.17104 2.96949 4.12179 3.03084 4.08486 3.06765C4.04793 3.10446 3.99869 3.14127 3.94945 3.19035C3.88789 3.2517 3.87558 3.27624 3.82634 3.32533L3.43241 3.69343C3.40778 3.75478 3.29699 3.84068 3.28468 3.84068C3.28468 3.84068 3.28468 3.84068 3.27237 3.84068C3.23544 3.90203 3.02616 4.12289 2.9523 4.1597L2.80457 4.30695C2.79226 4.33149 2.79226 4.33149 2.76764 4.35603C2.76764 4.3683 2.74302 4.3683 2.74302 4.38057L2.73071 4.39284C2.73071 4.39284 2.7184 4.39284 2.7184 4.40511C2.69378 4.45419 2.61991 4.52781 2.57067 4.55235C2.53374 4.6137 2.2506 4.89592 2.18905 4.95727L1.80742 5.32538C1.75818 5.37446 1.73356 5.41127 1.68432 5.46035L1.56121 5.58305C1.56121 5.58305 1.5489 5.58305 1.5489 5.59532C1.43811 5.75483 1.15497 6.04932 1.11803 6.28245C1.09341 6.39289 1.10572 6.38062 1.14265 6.46651L1.16728 6.49105C1.24114 6.52786 1.91822 7.23953 2.02901 7.34997L2.45988 7.77942C2.47219 7.7917 2.49681 7.81624 2.50912 7.82851C2.54605 7.86532 2.52143 7.82851 2.54605 7.87759C2.58298 7.87759 2.70609 7.87759 2.74302 7.87759L3.01385 7.73034C3.02616 7.69353 3.12464 7.64445 3.17389 7.61991C3.38316 7.4604 3.58013 7.27634 3.75248 7.09229C3.80172 7.04321 3.85096 7.0064 3.9002 6.95732C3.94945 6.90824 3.98638 6.85916 4.03562 6.81008L5.14356 5.70575C5.1805 5.66894 5.24205 5.59532 5.27898 5.58305C5.29129 5.55851 5.29129 5.55851 5.31591 5.53397C5.35284 5.49716 5.32822 5.50943 5.36515 5.49716C5.37746 5.46035 5.38977 5.44808 5.42671 5.41127L5.51288 5.34992C5.52519 5.32538 5.52519 5.33765 5.5375 5.31311L5.54981 5.30084C5.57443 5.27629 5.54981 5.30084 5.58674 5.26402C5.61136 5.22721 5.69754 5.12905 5.74678 5.11678C5.75909 5.07997 5.75909 5.09224 5.78371 5.0677C5.80833 5.04316 5.80833 5.04316 5.83295 5.03089C5.85757 4.98181 5.91912 4.93273 5.98068 4.87138C6.02992 4.8223 6.07916 4.77321 6.14071 4.71186C6.17765 4.67505 6.41154 4.42965 6.44848 4.41738C6.46079 4.39284 6.4731 4.38057 6.49772 4.35603C6.52234 4.33149 6.52234 4.33149 6.54696 4.31922L6.84241 4.01246C6.87934 3.97565 7.11324 3.76705 7.11324 3.71797C7.08862 3.69343 7.11324 3.71797 7.08862 3.69343L7.064 3.66889L6.92859 3.54619C6.89165 3.49711 6.79317 3.41122 6.75624 3.36214L6.63313 3.2517C6.57158 3.20262 6.3623 2.98176 6.31306 2.93268L5.67291 2.29463C5.62367 2.24554 5.56212 2.18419 5.51288 2.14738L5.36515 1.98787C5.36515 1.9756 5.36515 1.9756 5.35284 1.9756C5.31591 1.96333 5.3036 1.92652 5.25436 1.90198C5.20512 1.92652 5.1805 1.95106 5.15587 1.98787L5.19281 1.96333Z" fill="#2C2C2C" fill-opacity="0.7"/>
<path fill-rule="evenodd" clip-rule="evenodd" d="M6.37445 0.797992C6.14055 0.994316 6.01744 1.1661 5.83278 1.32561C5.79585 1.36242 5.83278 1.33788 5.79585 1.35015L5.68506 1.47286C5.70968 1.52194 5.70968 1.50967 5.7343 1.54648L6.21441 2.01275C6.27596 2.0741 6.33751 2.13545 6.36214 2.18453L6.436 2.25815C6.436 2.25815 6.44831 2.25815 6.44831 2.27042L7.12539 2.93301C7.19925 3.00664 7.47008 3.31339 7.55625 3.33793C7.56856 3.30112 7.93788 2.95755 7.98712 2.8962C8.03636 2.84712 8.0856 2.7735 8.13485 2.76123L8.23333 2.63853L8.28257 2.51583L8.30719 2.28269C8.25795 2.00048 8.09791 1.96367 7.98712 1.81642C7.9625 1.81642 7.9625 1.82869 7.9625 1.79188C7.92557 1.76734 7.79015 1.64464 7.77784 1.59556L7.7286 1.55875L7.53163 1.36242L7.4947 1.32561L7.29773 1.12929C7.24849 1.10475 7.2608 1.11702 7.23618 1.06794C7.15001 1.03113 7.03921 0.847073 6.89149 0.773452C6.69452 0.67529 6.53448 0.724371 6.37445 0.810262V0.797992Z" fill="#2C2C2C" fill-opacity="0.7"/>
<path fill-rule="evenodd" clip-rule="evenodd" d="M0.822454 6.95802C0.810144 7.0071 0.797833 7.03164 0.773212 7.09299L0.72397 7.19116C0.72397 7.19116 0.72397 7.20343 0.71166 7.20343V7.2157L0.625486 7.43656C0.625486 7.43656 0.625486 7.44883 0.613176 7.44883C0.613176 7.51018 0.490071 7.81694 0.45314 7.90283L0.354656 8.14823C0.354656 8.18504 0.21924 8.56542 0.182309 8.60223C0.169998 8.65131 0.157688 8.68812 0.133067 8.73721C0.133067 8.74948 0.120757 8.78629 0.108446 8.79856C0.0838251 8.85991 0.0961356 8.83537 0.0715146 8.85991L0.0592041 8.9458L0.194619 8.90899L0.687039 8.72494C0.748591 8.70039 0.834765 8.66358 0.896317 8.66358C0.933249 8.62677 0.95787 8.62677 1.01942 8.60223L1.37643 8.47953L1.83191 8.32002L2.09043 8.22186L2.15199 8.20959C2.13968 8.14823 2.15199 8.18504 2.10274 8.12369C2.10274 8.12369 2.09043 8.12369 2.09043 8.11142C2.09043 8.11142 2.09043 8.09915 2.07812 8.09915L1.94271 7.96418C1.88116 7.92737 1.64726 7.68196 1.61033 7.64515C1.56108 7.60834 1.47491 7.53472 1.45029 7.47337C1.38874 7.44883 1.31487 7.36294 1.26563 7.31386C1.21639 7.27705 1.21639 7.26478 1.17946 7.22797C1.13022 7.17889 1.13022 7.20343 1.1056 7.1298C1.06866 7.11753 0.994801 7.04391 0.97018 7.01937C0.920938 6.97029 0.908628 6.97029 0.884007 6.92121C0.834765 6.90894 0.871696 6.90894 0.822454 6.8844L0.773212 6.99483L0.822454 6.95802Z" fill="#2C2C2C" fill-opacity="0.7"/>
</svg>
