<svg width="16" height="14" viewBox="0 0 16 14" fill="none" xmlns="http://www.w3.org/2000/svg">
<path d="M10 0H4C3.44667 0 2.97333 0.333333 2.77333 0.813333L0.76 5.51333C0.7 5.66667 0.666667 5.82667 0.666667 6V7.33333C0.666667 8.06667 1.26667 8.66667 2 8.66667H6.20667L5.57333 11.7133L5.55333 11.9267C5.55333 12.2 5.66667 12.4533 5.84667 12.6333L6.55333 13.3333L10.9467 8.94C11.1867 8.7 11.3333 8.36667 11.3333 8V1.33333C11.3333 0.6 10.7333 0 10 0ZM12.6667 0V8H15.3333V0H12.6667Z" fill="#686868"/>
</svg>
