<svg width="9" height="9" viewBox="0 0 9 9" fill="none" xmlns="http://www.w3.org/2000/svg">
<path d="M7.60759 1.0216C7.64202 1.00734 7.67893 1 7.71619 1C7.75346 1 7.79037 1.00734 7.8248 1.0216C7.85924 1.03587 7.89052 1.05677 7.91687 1.08312C7.94323 1.10948 7.96414 1.14077 7.9784 1.1752C7.99266 1.20963 8 1.24653 8 1.28381C8 1.32108 7.99266 1.35798 7.9784 1.39241C7.96414 1.42684 7.94323 1.45813 7.91687 1.48449L1.97709 7.42427L1.42522 7.57478L1.57573 7.02291L7.51551 1.08312L6.81466 0.382276L7.51551 1.08312C7.54187 1.05677 7.57315 1.03587 7.60759 1.0216L7.2249 0.0977238L7.60759 1.0216Z" stroke="white" stroke-width="2" stroke-linecap="round" stroke-linejoin="round"/>
</svg>
