<svg width="14" height="14" viewBox="0 0 14 14" fill="none" xmlns="http://www.w3.org/2000/svg">
<path d="M12.44 2.07329C11.7322 1.3653 10.7938 0.934841 9.79548 0.860211C8.79715 0.785581 7.80519 1.07173 7 1.66662C6.15177 1.03572 5.09599 0.749631 4.04528 0.865982C2.99456 0.982333 2.02696 1.49248 1.33731 2.29368C0.64767 3.09488 0.287214 4.12764 0.328533 5.18397C0.369853 6.2403 0.809878 7.24174 1.56 7.98662L6.52667 12.9533C6.58864 13.0158 6.66237 13.0654 6.74361 13.0992C6.82485 13.1331 6.91199 13.1505 7 13.1505C7.08801 13.1505 7.17514 13.1331 7.25638 13.0992C7.33762 13.0654 7.41136 13.0158 7.47333 12.9533L12.44 7.98662C12.8284 7.59844 13.1366 7.13752 13.3468 6.6302C13.557 6.12288 13.6653 5.57911 13.6653 5.02996C13.6653 4.4808 13.557 3.93703 13.3468 3.42971C13.1366 2.92239 12.8284 2.46147 12.44 2.07329ZM11.5 7.04662L7 11.54L2.5 7.04662C2.10345 6.64842 1.83332 6.14199 1.72349 5.59085C1.61366 5.03971 1.66902 4.46841 1.88263 3.94862C2.09625 3.42883 2.4586 2.98369 2.92423 2.66904C3.38986 2.35439 3.93804 2.18425 4.5 2.17996C5.25074 2.1818 5.97006 2.48151 6.5 3.01329C6.56197 3.07578 6.63571 3.12537 6.71695 3.15922C6.79819 3.19306 6.88532 3.21049 6.97333 3.21049C7.06134 3.21049 7.14848 3.19306 7.22972 3.15922C7.31096 3.12537 7.38469 3.07578 7.44667 3.01329C7.99221 2.54055 8.69699 2.29272 9.41836 2.31997C10.1397 2.34723 10.8238 2.64752 11.3321 3.16008C11.8404 3.67264 12.1351 4.35918 12.1563 5.08075C12.1776 5.80232 11.9239 6.50502 11.4467 7.04662H11.5Z" fill="#686868"/>
</svg>
