<svg width="9" height="9" viewBox="0 0 9 9" fill="none" xmlns="http://www.w3.org/2000/svg">
<path fill-rule="evenodd" clip-rule="evenodd" d="M5.19274 1.96333C5.13119 2.03695 4.92191 2.25781 4.84805 2.29463C4.83574 2.31917 4.84805 2.3069 4.82343 2.33144C4.81112 2.34371 4.79881 2.35598 4.7865 2.35598C4.76188 2.38052 4.73726 2.40506 4.71264 2.41733L4.66339 2.47868C4.62646 2.50322 4.65108 2.50322 4.60184 2.52776C4.58953 2.57684 4.50336 2.63819 4.46643 2.675C4.39256 2.77316 4.3187 2.83452 4.20791 2.93268C4.17097 2.96949 4.12173 3.03084 4.0848 3.06765C4.04787 3.10446 3.99863 3.14127 3.94939 3.19035C3.88783 3.2517 3.87552 3.27624 3.82628 3.32533L3.43234 3.69343C3.40772 3.75478 3.29693 3.84068 3.28462 3.84068C3.28462 3.84068 3.28462 3.84068 3.27231 3.84068C3.23538 3.90203 3.0261 4.12289 2.95224 4.1597L2.80451 4.30695C2.7922 4.33149 2.7922 4.33149 2.76758 4.35603C2.76758 4.3683 2.74296 4.3683 2.74296 4.38057L2.73065 4.39284C2.73065 4.39284 2.71834 4.39284 2.71834 4.40511C2.69372 4.45419 2.61985 4.52781 2.57061 4.55235C2.53368 4.6137 2.25054 4.89592 2.18899 4.95727L1.80736 5.32538C1.75812 5.37446 1.7335 5.41127 1.68426 5.46035L1.56115 5.58305C1.56115 5.58305 1.54884 5.58305 1.54884 5.59532C1.43805 5.75483 1.1549 6.04932 1.11797 6.28245C1.09335 6.39289 1.10566 6.38062 1.14259 6.46651L1.16721 6.49105C1.24108 6.52786 1.91815 7.23953 2.02895 7.34997L2.45982 7.77942C2.47213 7.7917 2.49675 7.81624 2.50906 7.82851C2.54599 7.86532 2.52137 7.82851 2.54599 7.87759C2.58292 7.87759 2.70603 7.87759 2.74296 7.87759L3.01379 7.73034C3.0261 7.69353 3.12458 7.64445 3.17382 7.61991C3.3831 7.4604 3.58007 7.27634 3.75242 7.09229C3.80166 7.04321 3.8509 7.0064 3.90014 6.95732C3.94939 6.90824 3.98632 6.85916 4.03556 6.81008L5.1435 5.70575C5.18043 5.66894 5.24199 5.59532 5.27892 5.58305C5.29123 5.55851 5.29123 5.55851 5.31585 5.53397C5.35278 5.49716 5.32816 5.50943 5.36509 5.49716C5.3774 5.46035 5.38971 5.44808 5.42664 5.41127L5.51282 5.34992C5.52513 5.32538 5.52513 5.33765 5.53744 5.31311L5.54975 5.30084C5.57437 5.27629 5.54975 5.30084 5.58668 5.26402C5.6113 5.22721 5.69747 5.12905 5.74672 5.11678C5.75903 5.07997 5.75903 5.09224 5.78365 5.0677C5.80827 5.04316 5.80827 5.04316 5.83289 5.03089C5.85751 4.98181 5.91906 4.93273 5.98062 4.87138C6.02986 4.8223 6.0791 4.77321 6.14065 4.71186C6.17758 4.67505 6.41148 4.42965 6.44841 4.41738C6.46073 4.39284 6.47304 4.38057 6.49766 4.35603C6.52228 4.33149 6.52228 4.33149 6.5469 4.31922L6.84235 4.01246C6.87928 3.97565 7.11318 3.76705 7.11318 3.71797C7.08856 3.69343 7.11318 3.71797 7.08856 3.69343L7.06394 3.66889L6.92852 3.54619C6.89159 3.49711 6.79311 3.41122 6.75618 3.36214L6.63307 3.2517C6.57152 3.20262 6.36224 2.98176 6.313 2.93268L5.67285 2.29463C5.62361 2.24554 5.56206 2.18419 5.51282 2.14738L5.36509 1.98787C5.36509 1.9756 5.36509 1.9756 5.35278 1.9756C5.31585 1.96333 5.30354 1.92652 5.2543 1.90198C5.20506 1.92652 5.18043 1.95106 5.15581 1.98787L5.19274 1.96333Z" fill="#2C2C2C" fill-opacity="0.7"/>
<path fill-rule="evenodd" clip-rule="evenodd" d="M6.37445 0.797992C6.14055 0.994316 6.01744 1.1661 5.83278 1.32561C5.79585 1.36242 5.83278 1.33788 5.79585 1.35015L5.68506 1.47286C5.70968 1.52194 5.70968 1.50967 5.7343 1.54648L6.21441 2.01275C6.27596 2.0741 6.33751 2.13545 6.36214 2.18453L6.436 2.25815C6.436 2.25815 6.44831 2.25815 6.44831 2.27042L7.12539 2.93301C7.19925 3.00664 7.47008 3.31339 7.55625 3.33793C7.56856 3.30112 7.93788 2.95755 7.98712 2.8962C8.03636 2.84712 8.0856 2.7735 8.13485 2.76123L8.23333 2.63853L8.28257 2.51583L8.30719 2.28269C8.25795 2.00048 8.09791 1.96367 7.98712 1.81642C7.9625 1.81642 7.9625 1.82869 7.9625 1.79188C7.92557 1.76734 7.79015 1.64464 7.77784 1.59556L7.7286 1.55875L7.53163 1.36242L7.4947 1.32561L7.29773 1.12929C7.24849 1.10475 7.2608 1.11702 7.23618 1.06794C7.15001 1.03113 7.03921 0.847073 6.89149 0.773452C6.69452 0.67529 6.53448 0.724371 6.37445 0.810262V0.797992Z" fill="#2C2C2C" fill-opacity="0.7"/>
<path fill-rule="evenodd" clip-rule="evenodd" d="M0.822454 6.95802C0.810144 7.0071 0.797833 7.03164 0.773212 7.09299L0.72397 7.19116C0.72397 7.19116 0.72397 7.20343 0.71166 7.20343V7.2157L0.625486 7.43656C0.625486 7.43656 0.625486 7.44883 0.613176 7.44883C0.613176 7.51018 0.490071 7.81694 0.45314 7.90283L0.354656 8.14823C0.354656 8.18504 0.21924 8.56542 0.182309 8.60223C0.169998 8.65131 0.157688 8.68812 0.133067 8.73721C0.133067 8.74948 0.120757 8.78629 0.108446 8.79856C0.0838251 8.85991 0.0961356 8.83537 0.0715146 8.85991L0.0592041 8.9458L0.194619 8.90899L0.687039 8.72494C0.748591 8.70039 0.834765 8.66358 0.896317 8.66358C0.933249 8.62677 0.95787 8.62677 1.01942 8.60223L1.37643 8.47953L1.83191 8.32002L2.09043 8.22186L2.15199 8.20959C2.13968 8.14823 2.15199 8.18504 2.10274 8.12369C2.10274 8.12369 2.09043 8.12369 2.09043 8.11142C2.09043 8.11142 2.09043 8.09915 2.07812 8.09915L1.94271 7.96418C1.88116 7.92737 1.64726 7.68196 1.61033 7.64515C1.56108 7.60834 1.47491 7.53472 1.45029 7.47337C1.38874 7.44883 1.31487 7.36294 1.26563 7.31386C1.21639 7.27705 1.21639 7.26478 1.17946 7.22797C1.13022 7.17889 1.13022 7.20343 1.1056 7.1298C1.06866 7.11753 0.994801 7.04391 0.97018 7.01937C0.920938 6.97029 0.908628 6.97029 0.884007 6.92121C0.834765 6.90894 0.871696 6.90894 0.822454 6.8844L0.773212 6.99483L0.822454 6.95802Z" fill="#2C2C2C" fill-opacity="0.7"/>
</svg>
