<svg width="7" height="9" viewBox="0 0 7 9" fill="none" xmlns="http://www.w3.org/2000/svg">
<path fill-rule="evenodd" clip-rule="evenodd" d="M3.13588 0.0282373C1.04063 0.284283 -0.607436 2.28577 0.304952 4.66591C0.680005 5.64682 2.42184 7.84304 3.16112 8.73019C3.36668 8.97542 3.50011 9.1377 3.75616 8.82035C3.8932 8.64724 4.01221 8.48136 4.16728 8.28301C4.31513 8.09548 4.44496 7.91156 4.60003 7.70961C5.27801 6.82247 6.66643 5.02654 6.8792 4.01318C7.35162 1.75204 5.32489 -0.238627 3.13588 0.0282373ZM3.18997 2.09824C2.56609 2.24971 1.98548 2.89884 2.20907 3.71385C2.37135 4.30168 3.0313 4.84262 3.82107 4.64788C4.42693 4.49642 4.9823 3.83647 4.77674 3.03948C4.62527 2.44444 3.96893 1.91071 3.18637 2.10185L3.18997 2.09824Z" fill="white"/>
</svg>
