<svg width="24" height="22" viewBox="0 0 24 22" fill="none" xmlns="http://www.w3.org/2000/svg">
<g clip-path="url(#clip0_158_28)">
<path fill-rule="evenodd" clip-rule="evenodd" d="M0.00274658 14.1391C0.00274658 17.2184 1.53637 18.5304 3.80485 20.0375C9.60917 23.8976 23.9975 22.0977 23.9975 14.3126C23.9975 13.9114 23.9443 14.1065 23.8271 13.6186H2.56943C1.77067 13.6186 0.00274658 13.2933 0.00274658 14.1391Z" fill="#FBFBFB"/>
<path fill-rule="evenodd" clip-rule="evenodd" d="M3.60269 5.23706H20.2276L18.9283 1.14933C18.7472 0.563825 18.7472 0 18.1721 0H5.65817C5.02981 0 4.89136 1.21439 4.476 2.46131C4.1778 3.3721 3.80504 4.32627 3.59204 5.22622L3.60269 5.23706Z" fill="#FBFBFB"/>
<path fill-rule="evenodd" clip-rule="evenodd" d="M0.684021 12.2198H11.1425V6.46228H3.09095C2.5265 6.46228 2.45194 7.03695 2.29219 7.56824L0.694671 12.2198H0.684021Z" fill="#FBFBFB"/>
<path fill-rule="evenodd" clip-rule="evenodd" d="M12.8574 12.2198H23.3158L21.6011 7.67667C21.4201 7.18875 21.3242 6.46228 20.7385 6.46228H12.8574V12.2198Z" fill="#FBFBFB"/>
</g>
<defs>
<clipPath id="clip0_158_28">
<rect width="24" height="22" fill="white"/>
</clipPath>
</defs>
</svg>
