<svg width="12" height="15" viewBox="0 0 12 15" fill="none" xmlns="http://www.w3.org/2000/svg">
<g clip-path="url(#clip0_311_1197)">
<path fill-rule="evenodd" clip-rule="evenodd" d="M3.21285 0.646971C3.20296 0.730908 3.15355 0.80497 3.14366 0.938281C3.1239 1.2049 3.1239 1.70359 3.1239 1.98008C3.11896 2.43927 3.11896 2.89845 3.11896 3.35764V3.69338V3.96988V4.30563V4.58213V4.91787V5.19437V5.53012V5.80662V6.07818H3.54888V2.70589C3.54888 2.62689 3.55876 2.58739 3.55876 2.51827C3.55876 2.38002 3.55876 2.23683 3.55876 2.09365C3.55876 1.94059 3.56865 1.82209 3.56865 1.68384C3.68725 1.61965 3.90468 1.65915 4.0727 1.64928C4.11717 1.64434 4.132 1.6394 4.18141 1.6394H6.00983C7.86295 1.64434 9.71113 1.64928 11.5643 1.64928C11.589 1.75296 11.5741 1.90602 11.5741 2.02452C11.5741 2.16277 11.584 2.26152 11.584 2.39977C11.584 2.66145 11.5741 2.89351 11.5741 3.16508L11.584 4.97712C11.584 5.43137 11.5741 5.86586 11.5741 6.32999V12.6796L7.22053 12.6894C6.89933 12.6894 6.62259 12.6796 6.30138 12.6796H4.46309C4.22589 12.6598 3.87503 12.6944 3.55876 12.6647C3.55876 11.2872 3.55382 9.92939 3.54888 8.56666H3.11401V8.5864V8.8629V9.19865V9.47515V9.81089V10.0874V10.4231V10.6996V11.0354V11.3119V11.6476V11.9241V12.2599V12.5364V12.8721V13.1486V13.4844V13.7609V14.0966L3.21285 14.3682L3.38581 14.5854C3.45499 14.6694 3.46487 14.6644 3.53405 14.7286L3.58347 14.778C3.58347 14.778 3.58841 14.7829 3.59335 14.7879C3.63783 14.7977 3.69713 14.852 3.8009 14.8965C4.11717 15.0397 4.28025 14.9854 4.71017 14.9854C5.12527 14.9854 5.60955 14.9656 6.01971 14.9903H6.34586H6.63248H6.96357H7.2403H7.57633H7.85307H8.1891H8.46583H8.80187H9.0786H9.41463H9.69136C10.0323 14.9854 10.3783 14.9854 10.7192 14.9755C10.8774 14.9705 11.0355 14.9656 11.1887 14.936C11.3864 14.9014 11.4209 14.8372 11.5593 14.773C11.5741 14.7385 11.6977 14.6447 11.7372 14.6002C11.7669 14.5706 11.8657 14.4027 11.8805 14.3929C11.9151 14.2892 11.9942 14.1657 11.9991 14.0571V13.7806V13.4449V13.1684V12.8326V12.5561V12.2204V11.9439V11.6081V11.3316V10.9959V10.7194V10.3836V10.1071V9.77139V9.4949V9.15915V8.88265V8.54691V8.27041V7.93466V7.65816V7.32242V7.04592V6.71017V6.43367V6.09793V5.82143V5.48568V5.20918V4.87344V4.59694V4.26119V3.98469V3.64895V3.37245V3.0367V2.7602V2.42446V2.14796V1.81221C11.9991 1.61965 12.0288 0.948156 11.9695 0.814845C11.9151 0.686471 11.8657 0.572909 11.7965 0.469223C11.6631 0.276662 11.589 0.271724 11.5494 0.207537C11.4753 0.18285 11.416 0.133475 11.3419 0.0989131C11.2776 0.0692884 11.1936 0.0446011 11.1146 0.0347262C10.8131 0.0051014 9.50852 0.0100389 9.4344 -0.00477352L9.41463 -0.00971098C9.41463 -0.0146484 9.40969 -0.00971098 9.40475 -0.0146484C9.27626 0.0199138 8.64867 -0.00971098 8.46583 -0.00971098H8.1891H7.2403H6.96357C6.2322 -0.00971098 5.50578 0.000163939 4.77441 0.0100389C4.44826 0.0149763 4.0727 -0.00971098 3.79102 0.108788C3.41545 0.266787 3.3018 0.567972 3.22273 0.632159L3.21285 0.646971ZM6.30138 0.617346H8.81175C8.94023 0.617346 9.04895 0.72597 9.04895 0.854344C9.04895 0.982718 8.94023 1.09134 8.81175 1.09134H6.30138C6.1729 1.09134 6.06419 0.982718 6.06419 0.854344C6.06419 0.72597 6.1729 0.617346 6.30138 0.617346ZM7.56151 14.541C7.74929 14.541 7.94202 14.4768 8.06556 14.3484C8.19404 14.2151 8.25828 14.0423 8.27311 13.8497C8.27805 13.7707 8.25828 13.6325 8.22863 13.5683C8.19404 13.4942 8.0705 13.3362 7.99143 13.277C7.94696 13.2424 7.92719 13.2375 7.87777 13.2128C7.76906 13.1536 7.82836 13.1931 7.74929 13.1634C7.61587 13.1091 7.43303 13.1338 7.30948 13.1832C7.26501 13.2029 7.2403 13.2276 7.20077 13.2474C7.11676 13.2918 7.05746 13.3362 7.00804 13.4202C6.92898 13.5535 6.89438 13.5239 6.85979 13.8152C6.83508 14.0324 6.99816 14.383 7.26007 14.4817C7.33419 14.5114 7.46268 14.541 7.56645 14.541H7.56151Z" fill="white"/>
<path fill-rule="evenodd" clip-rule="evenodd" d="M4.69531 7.1297L0.420774 7.13463C0.035324 7.13463 0.000732422 7.07045 0.000732422 7.51975C0.000732422 7.82094 0.0896823 7.78144 0.514665 7.7765H4.69531C4.66072 7.83575 4.46305 8.02338 4.40375 8.08262C3.96394 8.52206 3.92441 8.48256 4.21597 8.77881C4.39881 8.96149 4.43834 8.92199 4.60142 8.75412L5.52551 7.82588C5.89119 7.46544 5.88131 7.43088 5.54033 7.0902L4.60636 6.15208C4.46799 6.00889 4.40375 5.92002 4.22585 6.10764C3.97877 6.36933 3.89476 6.35451 4.38893 6.80382C4.46305 6.87295 4.66566 7.06057 4.69531 7.11982V7.1297Z" fill="white"/>
</g>
<defs>
<clipPath id="clip0_311_1197">
<rect width="12" height="15" fill="white"/>
</clipPath>
</defs>
</svg>
