<svg width="34" height="34" viewBox="0 0 34 34" fill="none" xmlns="http://www.w3.org/2000/svg">
<path d="M17 0.333374C13.7675 0.339516 10.6065 1.28556 7.90205 3.05627C5.19763 4.82698 3.06649 7.34594 1.76824 10.3063C0.469978 13.2667 0.060627 16.5407 0.590044 19.7296C1.11946 22.9185 2.5648 25.8846 4.75 28.2667C6.31071 29.9585 8.2049 31.3086 10.3132 32.2321C12.4216 33.1555 14.6983 33.6323 17 33.6323C19.3017 33.6323 21.5784 33.1555 23.6868 32.2321C25.7951 31.3086 27.6893 29.9585 29.25 28.2667C31.4352 25.8846 32.8805 22.9185 33.41 19.7296C33.9394 16.5407 33.53 13.2667 32.2318 10.3063C30.9335 7.34594 28.8024 4.82698 26.098 3.05627C23.3935 1.28556 20.2325 0.339516 17 0.333374ZM17 30.3334C13.5474 30.3281 10.2315 28.9838 7.75 26.5834C8.50341 24.7493 9.78506 23.1805 11.4321 22.0765C13.0791 20.9725 15.0172 20.383 17 20.383C18.9828 20.383 20.9209 20.9725 22.5679 22.0765C24.2149 23.1805 25.4966 24.7493 26.25 26.5834C23.7685 28.9838 20.4526 30.3281 17 30.3334ZM13.6667 13.6667C13.6667 13.0074 13.8622 12.363 14.2284 11.8148C14.5947 11.2666 15.1153 10.8394 15.7244 10.5871C16.3335 10.3348 17.0037 10.2688 17.6503 10.3974C18.2969 10.526 18.8908 10.8435 19.357 11.3097C19.8232 11.7759 20.1407 12.3698 20.2693 13.0164C20.3979 13.663 20.3319 14.3332 20.0796 14.9423C19.8273 15.5514 19.4001 16.072 18.8519 16.4383C18.3037 16.8045 17.6593 17 17 17C16.1159 17 15.2681 16.6489 14.643 16.0237C14.0179 15.3986 13.6667 14.5508 13.6667 13.6667ZM28.5167 23.6667C27.0276 21.1196 24.7357 19.1384 22 18.0334C22.8486 17.0711 23.4015 15.8845 23.5925 14.6158C23.7834 13.3471 23.6041 12.0502 23.0763 10.8809C22.5484 9.71151 21.6943 8.71931 20.6165 8.02332C19.5387 7.32733 18.283 6.95712 17 6.95712C15.717 6.95712 14.4613 7.32733 13.3835 8.02332C12.3057 8.71931 11.4516 9.71151 10.9237 10.8809C10.3959 12.0502 10.2166 13.3471 10.4075 14.6158C10.5985 15.8845 11.1514 17.0711 12 18.0334C9.26433 19.1384 6.97245 21.1196 5.48333 23.6667C4.29657 21.6452 3.66953 19.3441 3.66667 17C3.66667 13.4638 5.07143 10.0724 7.57191 7.57195C10.0724 5.07147 13.4638 3.66671 17 3.66671C20.5362 3.66671 23.9276 5.07147 26.4281 7.57195C28.9286 10.0724 30.3333 13.4638 30.3333 17C30.3305 19.3441 29.7034 21.6452 28.5167 23.6667Z" fill="#FBFBFB"/>
</svg>
