<svg width="12" height="12" viewBox="0 0 12 12" fill="none" xmlns="http://www.w3.org/2000/svg">
<path d="M11.4892 4.04003C11.4892 4.04003 11.4892 4.04003 11.4892 4.01087C11.0782 2.88866 10.3324 1.91978 9.35273 1.23529C8.37307 0.550791 7.2068 0.183716 6.0117 0.183716C4.81659 0.183716 3.65033 0.550791 2.67066 1.23529C1.691 1.91978 0.945216 2.88866 0.534199 4.01087C0.534199 4.01087 0.534199 4.01087 0.534199 4.04003C0.0751888 5.30639 0.0751888 6.69368 0.534199 7.96003C0.534199 7.96003 0.534199 7.96003 0.534199 7.9892C0.945216 9.1114 1.691 10.0803 2.67066 10.7648C3.65033 11.4493 4.81659 11.8163 6.0117 11.8163C7.2068 11.8163 8.37307 11.4493 9.35273 10.7648C10.3324 10.0803 11.0782 9.1114 11.4892 7.9892C11.4892 7.9892 11.4892 7.9892 11.4892 7.96003C11.9482 6.69368 11.9482 5.30639 11.4892 4.04003ZM1.48503 7.1667C1.28275 6.40207 1.28275 5.59799 1.48503 4.83337H2.57003C2.47672 5.60835 2.47672 6.39172 2.57003 7.1667H1.48503ZM1.96337 8.33337H2.78003C2.91695 8.85361 3.11266 9.35657 3.36337 9.83253C2.79129 9.44283 2.31307 8.93073 1.96337 8.33337ZM2.78003 3.6667H1.96337C2.30804 3.07117 2.78014 2.55922 3.34587 2.16753C3.10119 2.64426 2.91136 3.14719 2.78003 3.6667ZM5.4167 10.4917C4.70023 9.96593 4.19703 9.19975 3.9992 8.33337H5.4167V10.4917ZM5.4167 7.1667H3.74837C3.63951 6.39273 3.63951 5.60734 3.74837 4.83337H5.4167V7.1667ZM5.4167 3.6667H3.9992C4.19703 2.80031 4.70023 2.03414 5.4167 1.50837V3.6667ZM10.0367 3.6667H9.22003C9.08311 3.14646 8.88741 2.6435 8.6367 2.16753C9.20877 2.55724 9.68699 3.06933 10.0367 3.6667ZM6.58336 1.50837C7.29983 2.03414 7.80303 2.80031 8.00086 3.6667H6.58336V1.50837ZM6.58336 10.4917V8.33337H8.00086C7.80303 9.19975 7.29983 9.96593 6.58336 10.4917ZM8.2517 7.1667H6.58336V4.83337H8.2517C8.36055 5.60734 8.36055 6.39273 8.2517 7.1667ZM8.6542 9.83253C8.90491 9.35657 9.10061 8.85361 9.23753 8.33337H10.0542C9.70449 8.93073 9.22627 9.44283 8.6542 9.83253ZM10.515 7.1667H9.43003C9.47747 6.77963 9.50085 6.39 9.50003 6.00003C9.50067 5.61008 9.47729 5.22045 9.43003 4.83337H10.515C10.7173 5.59799 10.7173 6.40207 10.515 7.1667Z" fill="white"/>
</svg>
